# xmcd CD database file
#
# Track frame offsets:
#	150
#	17440
#	36870
#	53390
#	65585
#	82264
#	91579
#	105288
#	120437
#	132820
#	147910
#	161186
#
# Disc length: 2332 seconds
#
# Revision: 0
# Processed by: cddbd v1.5.1PL0 Copyright (c) Steve Scherf et al.
# Submitted via: CDex 1.51
#
DISCID=8f091a0c
DTITLE=Macavine Hayes - Drink House
DYEAR=1900
DGENRE=Blues
TTITLE0=Goodbye Johnny B. Goode
TTITLE1=Little Rain Fallin'
TTITLE2=Snatch That Thing
TTITLE3=I Got Jesus
TTITLE4=Have You Ever Been Mistreated
TTITLE5=Where Jesus Is
TTITLE6=Mercy On Poor Me
TTITLE7=Miss Claudie
TTITLE8=Just A Little Bit
TTITLE9=Matchbox Blues
TTITLE10=Comeback Baby
TTITLE11=God Is Real
EXTD=
EXTT0=
EXTT1=
EXTT2=
EXTT3=
EXTT4=
EXTT5=
EXTT6=
EXTT7=
EXTT8=
EXTT9=
EXTT10=
EXTT11=
PLAYORDER=
